<svg xmlns="http://www.w3.org/2000/svg" width="100" height="100" viewBox="0 0 100 100" fill="none">
<g clip-path="url(#clip0_1_2)">
<path d="M92.3853 10.1604C95.1889 10.1604 97.4618 7.88594 97.4618 5.08021C97.4618 2.27449 95.1889 0 92.3853 0C89.5816 0 87.3088 2.27449 87.3088 5.08021C87.3088 7.88594 89.5816 10.1604 92.3853 10.1604Z" fill="#FBCD59"/>
<path d="M83.7018 1.87166C83.8331 1.66833 84.0235 1.50208 84.2468 1.39565C84.4702 1.28921 84.7156 1.2478 84.9496 1.27706C85.1835 1.30633 85.3946 1.40485 85.5538 1.55914C85.7131 1.71344 85.8128 1.91597 85.8392 2.13904C85.8392 2.40642 85.8392 2.6738 85.8392 2.94118C85.8777 3.23009 85.8009 3.50963 85.6248 3.72152C85.4488 3.93341 85.187 4.0613 84.8942 4.07854C84.6014 4.09578 84.3001 4.00103 84.053 3.81405C83.806 3.62706 83.6323 3.36227 83.5682 3.07486C83.4791 2.62923 83.5236 2.22816 83.7018 1.87166Z" fill="#FBCD59"/>
<path d="M76.8886 89.3048C78.2245 77.2727 68.7395 76.2032 60.1896 72.8609C59.7443 72.6827 59.4771 72.3262 59.388 71.7914C59.0318 70.6328 58.9427 69.385 59.1208 68.0481C59.2099 67.6025 59.4771 67.246 59.9224 66.9786C67.1364 63.369 66.4684 58.9572 69.0066 52.4064C70.209 49.5989 71.4113 45.5882 69.4074 42.9144C69.1402 42.5579 69.0066 42.1123 69.0066 41.5775C71.2777 16.0428 36.5438 10.8289 31.2001 34.6257C31.022 35.6952 30.9774 38.057 31.0665 41.7112C31.0665 42.1569 30.9329 42.5579 30.6657 42.9144C28.2611 45.7219 30.5321 51.8716 32.0017 54.4118C32.1798 54.7683 32.2688 55.1693 32.2688 55.615C32.6696 61.8984 35.8758 63.9037 40.2844 67.3797C40.7297 67.647 40.9968 68.0481 41.0859 68.5829C41.5312 70.9893 40.418 72.6827 37.7461 73.6631C29.9978 76.6043 21.0471 78.6096 23.4518 89.4385C16.6831 84.5365 11.473 78.565 7.82149 71.5241C12.0964 65.82 10.8051 62.4777 3.94733 61.4973C0.830179 45.1872 3.94733 31.3725 13.2988 20.0535C29.597 0.534759 57.2505 -3.20856 78.0909 11.7647C105.21 31.5508 102.805 69.7861 76.8886 89.3048ZM89.847 28.7433C89.8477 28.4859 89.7952 28.231 89.693 27.9948C89.5908 27.7585 89.4409 27.5459 89.2528 27.3702C89.0648 27.1946 88.8425 27.0596 88.5999 26.9738C88.3574 26.888 88.0997 26.8533 87.8431 26.8717C87.3471 26.8717 86.8714 27.0688 86.5206 27.4198C86.1699 27.7709 85.9728 28.2469 85.9728 28.7433C85.9545 29.0001 85.9892 29.2579 86.0749 29.5007C86.1607 29.7434 86.2955 29.9659 86.4711 30.1541C86.6466 30.3423 86.8591 30.4922 87.0951 30.5945C87.3312 30.6968 87.5859 30.7493 87.8431 30.7487C88.1114 30.7686 88.3808 30.7305 88.633 30.6367C88.8851 30.543 89.1141 30.396 89.3044 30.2056C89.4946 30.0153 89.6415 29.7861 89.7352 29.5337C89.8288 29.2814 89.867 29.0118 89.847 28.7433ZM12.7644 51.8717C12.7315 51.0667 12.3973 50.3035 11.828 49.7339C11.2587 49.1642 10.4962 48.8297 9.69178 48.7968C8.86409 48.7961 8.06819 49.1157 7.47061 49.6888C6.87302 50.2619 6.52006 51.0441 6.48557 51.8717C6.48557 52.7226 6.82337 53.5387 7.42465 54.1404C8.02593 54.7422 8.84144 55.0802 9.69178 55.0802C10.5188 55.0457 11.3004 54.6925 11.873 54.0945C12.4457 53.4964 12.7651 52.6999 12.7644 51.8717Z" fill="#C0E5E4"/>
<svg width="100" height="100" viewBox="0 0 100 100" fill="none" xmlns="http://www.w3.org/2000/svg">
    <g clip-path="url(#clip0_1_2)">
        <path d="M97.4618 19.1176C98.8636 19.1176 100 17.9804 100 16.5775C100 15.1747 98.8636 14.0374 97.4618 14.0374C96.0599 14.0374 94.9235 15.1747 94.9235 16.5775C94.9235 17.9804 96.0599 19.1176 97.4618 19.1176Z" fill="#00A5A5"/>
        <path d="M76.8886 89.3048C62.5497 99.0196 47.2311 100.535 30.9329 93.8503C28.172 92.6916 25.6783 91.221 23.4518 89.4385C21.0471 78.6096 29.9978 76.6043 37.7461 73.6631C40.418 72.6827 41.5312 70.9893 41.0859 68.5829C40.9968 68.0481 40.7297 67.647 40.2844 67.3797C35.8758 63.9037 32.6696 61.8984 32.2688 55.615C32.2688 55.1693 32.1798 54.7683 32.0017 54.4118C30.5321 51.8716 28.2611 45.7219 30.6657 42.9144C30.9329 42.5579 31.0665 42.1569 31.0665 41.7112C30.9774 38.057 31.022 35.6952 31.2001 34.6257C36.5438 10.8289 71.2777 16.0428 69.0066 41.5775C69.0066 42.1123 69.1402 42.5579 69.4074 42.9144C71.4113 45.5882 70.209 49.5989 69.0066 52.4064C66.4684 58.9572 67.1364 63.369 59.9224 66.9786C59.4771 67.246 59.2099 67.6025 59.1208 68.0481C58.9427 69.385 59.0318 70.6328 59.388 71.7914C59.4771 72.3262 59.7443 72.6827 60.1896 72.8609C68.7395 76.2032 78.2245 77.2727 76.8886 89.3048ZM67.9379 42.9144C67.9379 41.6667 67.9379 40.0624 67.9379 38.1016C68.0715 17.6471 36.9446 13.6364 32.6696 34.7594C32.0017 37.8342 33.0704 41.7112 31.3337 44.5187C31.0665 44.8752 30.9329 45.2763 30.9329 45.7219C30.9329 48.574 31.6454 51.2478 33.0704 53.7433C33.3376 54.0998 33.4712 54.5454 33.4712 55.0802C33.7383 59.3583 35.6977 62.7005 39.3492 65.1069C47.7655 70.7219 54.8459 69.9198 62.7278 63.6364C65.1325 61.5864 66.3793 58.779 66.4684 55.2139C66.4921 54.7842 66.6305 54.3687 66.8692 54.0107C68.2051 51.738 70.4762 46.2567 68.4723 43.984C68.1734 43.7019 67.984 43.323 67.9379 42.9144ZM39.4828 74.5989C35.6532 75.7576 32.4915 76.9162 29.9978 78.0749C25.901 79.9465 24.0752 83.1551 24.5205 87.7005C24.5607 88.033 24.6784 88.3514 24.864 88.63C25.0496 88.9086 25.298 89.1398 25.5892 89.3048C40.8187 98.1283 59.6552 98.7968 74.7511 88.9037C75.1073 88.6363 75.33 88.3244 75.4191 87.9679C76.755 79.0107 68.3387 77.139 60.8575 74.5989C58.5419 73.6185 57.4732 71.7914 57.6513 69.1176C57.7404 68.5829 57.5177 68.4046 56.9834 68.5829C51.9069 70.4545 48.1663 71.3904 43.2234 68.4492C42.6 68.0927 42.3328 68.3155 42.4218 69.1176C42.6 71.4349 41.6203 73.262 39.4828 74.5989Z" fill="#482F2E"/>
        <path d="M68.4723 43.9839C70.4762 46.2567 68.2051 51.738 66.8692 54.0107C66.6305 54.3687 66.4921 54.7842 66.4684 55.2139C66.3793 58.779 65.1325 61.5864 62.7278 63.6364C54.8459 69.9198 47.7655 70.7219 39.3492 65.1069C35.6977 62.7005 33.7383 59.3583 33.4712 55.0802C33.4712 54.5454 33.3376 54.0998 33.0704 53.7433C31.6454 51.2478 30.9329 48.574 30.9329 45.7219C30.9329 45.2763 31.0665 44.8752 31.3337 44.5187C33.0704 41.7112 32.0017 37.8342 32.6696 34.7594C36.9446 13.6364 68.0715 17.6471 67.9379 38.1016C67.9379 40.0624 67.9379 41.6667 67.9379 42.9144C67.984 43.323 68.1733 43.7019 68.4723 43.9839Z" fill="#D8AD8F"/>
        <path d="M87.8431 30.615C88.8761 30.615 89.7134 29.777 89.7134 28.7433C89.7134 27.7096 88.8761 26.8717 87.8431 26.8717C86.8102 26.8717 85.9728 27.7096 85.9728 28.7433C85.9728 29.777 86.8102 30.615 87.8431 30.615Z" fill="white"/>
        <path d="M9.69178 55.0802C11.4625 55.0802 12.898 53.6437 12.898 51.8717C12.898 50.0996 11.4625 48.6631 9.69178 48.6631C7.92104 48.6631 6.48557 50.0996 6.48557 51.8717C6.48557 53.6437 7.92104 55.0802 9.69178 55.0802Z" fill="white"/>
        <path d="M3.94733 61.4973C10.805 62.4777 12.0964 65.82 7.82149 71.5241C-0.194027 72.8609 -2.99946 64.9732 3.94733 61.4973Z" fill="#FBCD59"/>
        <path d="M60.8575 74.5989C53.5545 79.4117 46.4296 79.4117 39.4828 74.5989C41.6203 73.262 42.6 71.4349 42.4218 69.1176C42.3328 68.3155 42.6 68.0927 43.2234 68.4492C48.1663 71.3904 51.9069 70.4545 56.9834 68.5829C57.5177 68.4046 57.7404 68.5829 57.6513 69.1176C57.4732 71.7914 58.5419 73.6185 60.8575 74.5989Z" fill="#B2876B"/>
        <path d="M39.4828 74.5989C46.4296 79.4118 53.5545 79.4118 60.8575 74.5989C68.3387 77.139 76.755 79.0107 75.4191 87.9679C75.33 88.3244 75.1073 88.6363 74.7511 88.9037C59.6552 98.7968 40.8187 98.1283 25.5892 89.3048C25.298 89.1398 25.0496 88.9086 24.864 88.63C24.6784 88.3514 24.5607 88.033 24.5205 87.7005C24.0752 83.1551 25.901 79.9465 29.9978 78.0749C32.4915 76.9162 35.6532 75.7576 39.4828 74.5989Z" fill="#85CFCC"/>
        <path d="M89.847 85.9626C91.2488 85.9626 92.3853 84.8253 92.3853 83.4224C92.3853 82.0196 91.2488 80.8823 89.847 80.8823C88.4452 80.8823 87.3088 82.0196 87.3088 83.4224C87.3088 84.8253 88.4452 85.9626 89.847 85.9626Z" fill="#FBCD59"/>
        <path d="M17.9745 100C19.3763 100 20.5127 98.8627 20.5127 97.4599C20.5127 96.057 19.3763 94.9198 17.9745 94.9198C16.5727 94.9198 15.4362 96.057 15.4362 97.4599C15.4362 98.8627 16.5727 100 17.9745 100Z" fill="#00A5A5"/>
    </g>
    <defs>
        <clipPath id="clip0_1_2">
            <rect width="100" height="100" fill="white"/>
        </clipPath>
    </defs>
</svg>