<svg xmlns="http://www.w3.org/2000/svg" viewBox="0 0 42 46" fill="none">
<path d="M21 0C20.2852 0 19.5703 0.179688 18.9336 0.539063L2.08984 10.0039C0.800781 10.7266 0 12.082 0 13.5352V32.4648C0 33.918 0.800781 35.2734 2.08984 35.9961L18.9336 45.4609C19.5703 45.8203 20.2852 46 21 46C21.7148 46 22.4297 45.8203 23.0664 45.4609L39.9102 36C41.1992 35.2734 42 33.918 42 32.4648V13.5352C42 12.082 41.1992 10.7266 39.9102 10.0039L23.0664 0.539063C22.4297 0.179688 21.7148 0 21 0ZM21 11C24.7812 11 28.2773 12.7539 30.543 15.7383L26.1602 18.2773C24.8438 16.8359 22.9727 16 21 16C17.1406 16 14 19.1406 14 23C14 26.8594 17.1406 30 21 30C22.9727 30 24.8438 29.1641 26.1602 27.7227L30.543 30.2617C28.2773 33.2461 24.7812 35 21 35C14.3828 35 9 29.6172 9 23C9 16.3828 14.3828 11 21 11ZM31 18H33V20H35V18H37V20H39V22H37V24H39V26H37V28H35V26H33V28H31V26H29V24H31V22H29V20H31V18ZM33 22V24H35V22H33Z" fill="white"/>
</svg>