<svg xmlns="http://www.w3.org/2000/svg" width="223" height="227" viewBox="0 0 223 227" fill="none">
<path fill-rule="evenodd" clip-rule="evenodd" d="M0 0L9.81563 111.319L46.5 123.547V123.492V123.428V123.364V123.299V123.234V123.168V123.102V123.036V122.97V122.903V122.835V122.768V122.7V122.631V122.562V122.493V122.424V122.354V122.284V122.213V122.142V122.071V121.999V121.927V121.855V121.782V121.709V121.636V121.562V121.488V121.414V121.339V121.264V121.189V121.113V121.037V120.961V120.884V120.807V120.73V120.653V120.575V120.496V120.418V120.339V120.26V120.18V120.101V120.02V119.94V119.859V119.778V119.697V119.615V119.533V119.451V119.369V119.286V119.203V119.119V119.036V118.952V118.867V118.783V118.698V118.613V118.528V118.442V118.356V118.27V118.183V118.097V118.01V117.922V117.835V117.747V117.659V117.57V117.482V117.393V117.304V117.214V117.125V117.035V116.945V116.854V116.764V116.673V116.582V116.49V116.399V116.307V116.215V116.122V116.03V115.937V115.844V115.751V115.657V115.564V115.47V115.375V115.281V115.186V115.092V114.996V114.901V114.806V114.71V114.614V114.518V114.422V114.325V114.228V114.131V114.034V113.937V113.839V113.741V113.643V113.545V113.447V113.348V113.25V113.151V113.052V112.952V112.853V112.753V112.653V112.553V112.453V112.353V112.252V112.151V112.051V111.949V111.848V111.747V111.645V111.543V111.442V111.339V111.237V111.135V111.032V110.93V110.827V110.724V110.621V110.517V110.414V110.31V110.207V110.103V109.999V109.894V109.79V109.686V109.581V109.476V109.372V109.267V109.162V109.056V108.951V108.846V108.74V108.634V108.528V108.422V108.316V108.21V108.104V107.998V107.891V107.784V107.678V107.571V107.464V107.357V107.25V107.142V107.035V106.928V106.82V106.713V106.605V106.497V106.389V106.281V106.173V106.065V105.957V105.848V105.74V105.632V105.523V105.414V105.306V105.197V105.088V104.979V104.87V104.761V104.652V104.543V104.434V104.324V104.215V104.106V103.996V103.887V103.777V103.668V103.558V103.448V103.339V103.229V103.119V103.009V102.899V102.789V102.679V102.569V102.459V102.349V102.239V102.129V102.019V101.909V101.799V101.688V101.578V101.468V101.358V101.247V101.137V101.027V100.916V100.806V100.696V100.585V100.475V100.365V100.254V100.144V100.034V99.9234V99.8131V99.7027V99.5924V99.4821V99.3718V99.2615V99.1512V99.041V98.9308V98.8205V98.7103V98.6002V98.49V98.3799V98.2698V98.1597V98.0497V97.9397V97.8297V97.7197V97.6098V97.5V97.3901V97.2804V97.2457L26.1 91.6031L24.4125 70.2844H37.8281L38.8125 81L46.7153 83.1419C48.1574 73.8142 56.62 68.5 65.3 68.5H70.1683L70.65 63.5062H23.7094L20.1094 22.5562H87.9188L86.6813 35.9719H34.9875L36.1406 49.8656H85.5281L83.8204 68.5H101.96L108 0H0ZM101.166 77.5H82.9956L81.7031 91.6031L55.5 98.8297V98.9308V99.041V99.1512V99.2615V99.3718V99.4821V99.5924V99.7027V99.8131V99.9234V100.034V100.144V100.254V100.365V100.475V100.585V100.696V100.806V100.916V101.027V101.137V101.247V101.358V101.468V101.578V101.688V101.799V101.909V102.019V102.129V102.239V102.349V102.459V102.569V102.679V102.789V102.899V103.009V103.119V103.229V103.339V103.448V103.558V103.668V103.777V103.887V103.996V104.106V104.215V104.324V104.434V104.543V104.652V104.761V104.87V104.979V105.088V105.197V105.306V105.414V105.523V105.632V105.74V105.848V105.957V106.065V106.173V106.281V106.389V106.497V106.605V106.713V106.82V106.928V107.035V107.142V107.25V107.357V107.464V107.571V107.678V107.784V107.891V107.998V108.104V108.21V108.316V108.422V108.528V108.634V108.74V108.846V108.951V109.056V109.162V109.267V109.372V109.476V109.581V109.686V109.79V109.894V109.999V110.103V110.207V110.31V110.414V110.517V110.621V110.724V110.827V110.93V111.032V111.135V111.237V111.339V111.442V111.543V111.645V111.747V111.848V111.949V112.051V112.151V112.252V112.353V112.453V112.553V112.653V112.753V112.853V112.952V113.052V113.151V113.25V113.348V113.447V113.545V113.643V113.741V113.839V113.937V114.034V114.131V114.228V114.325V114.422V114.518V114.614V114.71V114.806V114.901V114.996V115.092V115.186V115.281V115.375V115.47V115.564V115.657V115.751V115.844V115.937V116.03V116.122V116.215V116.307V116.399V116.49V116.582V116.673V116.764V116.854V116.945V117.035V117.125V117.214V117.304V117.393V117.482V117.57V117.659V117.747V117.835V117.922V118.01V118.097V118.183V118.27V118.356V118.442V118.528V118.613V118.698V118.783V118.867V118.952V119.036V119.119V119.203V119.286V119.369V119.451V119.533V119.615V119.697V119.778V119.859V119.94V120.02V120.101V120.18V120.26V120.339V120.418V120.496V120.575V120.653V120.73V120.807V120.884V120.961V121.037V121.113V121.189V121.264V121.339V121.414V121.488V121.562V121.636V121.709V121.782V121.855V121.927V121.999V122.071V122.142V122.213V122.284V122.354V122.424V122.493V122.562V122.631V122.7V122.768V122.835V122.903V122.97V123.036V123.102V123.168V123.234V123.299V123.364V123.428V123.492V123.556V123.619V123.682V123.744V123.806V123.868V123.929V123.99V124.05V124.111V124.17V124.23V124.288V124.347V124.405V124.463V124.52V124.577V124.633V124.689V124.745V124.8V124.855V124.91V124.964V125.017V125.07V125.123V125.175V125.227V125.279V125.33V125.38V125.431V125.457L98.1844 111.319L101.166 77.5ZM55.6101 84.6054L68.9625 81L69.3001 77.5H65.3C60.0027 77.5 56.2843 80.4268 55.6101 84.6054ZM121.834 77.5H140.399L141.55 90.7875L167.5 98.4569V125.502L124.816 111.319L121.834 77.5ZM176.5 123.508L213.184 111.319L223 0H115L121.04 68.5H157.7C166.834 68.5 174.524 74.0759 176.173 82.5515L184.581 80.1843L185.622 62.8594L138.85 62.7187V62.6906L138.794 62.7187L137.781 49.6969L169.309 36.5625L171.137 35.8031H136.572L134.941 22.5H203.059L201.709 35.8031L169.281 49.6687L169.197 49.6969H200.556L196.956 90.9281L176.5 96.9066V123.508ZM167.271 84.0285C166.385 80.3268 162.974 77.5 157.7 77.5H154.13L154.403 80.775L167.271 84.0285Z" fill="white"/>
<path d="M158.25 74H64.75C57.7109 74 52 79.7109 52 86.75V180.25C52 187.289 57.7109 193 64.75 193H158.25C165.289 193 171 187.289 171 180.25V86.75C171 79.7109 165.289 74 158.25 74ZM116.759 166.809C116.759 178.391 109.959 183.677 100.052 183.677C91.1 183.677 85.9203 179.055 83.2641 173.45L92.375 167.952C94.1281 171.059 95.7219 173.689 99.5734 173.689C103.239 173.689 105.577 172.255 105.577 166.65V128.639H116.759V166.809ZM143.216 183.677C132.83 183.677 126.109 178.736 122.842 172.255L131.953 166.995C134.344 170.9 137.478 173.795 142.977 173.795C147.598 173.795 150.573 171.484 150.573 168.27C150.573 164.445 147.545 163.091 142.419 160.833L139.63 159.637C131.555 156.211 126.216 151.881 126.216 142.77C126.216 134.377 132.617 128.002 142.578 128.002C149.697 128.002 154.797 130.472 158.462 136.953L149.75 142.531C147.838 139.105 145.766 137.75 142.552 137.75C139.284 137.75 137.212 139.822 137.212 142.531C137.212 145.878 139.284 147.233 144.092 149.331L146.881 150.527C156.391 154.591 161.73 158.761 161.73 168.111C161.73 178.152 153.814 183.677 143.216 183.677Z" fill="white"/>
</svg>