<svg xmlns="http://www.w3.org/2000/svg" xmlns:xlink="http://www.w3.org/1999/xlink" version="1.1" width="400px" height="170px" style="shape-rendering:geometricPrecision; text-rendering:geometricPrecision; image-rendering:optimizeQuality; fill-rule:evenodd; clip-rule:evenodd">
<g><path style="opacity:1" fill="#fefefe" d="M -0.5,-0.5 C 132.833,-0.5 266.167,-0.5 399.5,-0.5C 399.5,56.1667 399.5,112.833 399.5,169.5C 266.167,169.5 132.833,169.5 -0.5,169.5C -0.5,112.833 -0.5,56.1667 -0.5,-0.5 Z"/></g>
<g><path style="opacity:1" fill="#de7015" d="M 21.5,31.5 C 26.5,31.5 31.5,31.5 36.5,31.5C 36.6666,62.5018 36.5,93.5018 36,124.5C 33.3737,136.634 26.2071,144.967 14.5,149.5C 11.4503,147.451 9.11698,144.784 7.5,141.5C 14.6623,137.514 19.1623,131.514 21,123.5C 21.5,92.8351 21.6666,62.1685 21.5,31.5 Z"/></g>
<g><path style="opacity:1" fill="#5d829f" d="M 269.5,31.5 C 288.845,31.1671 308.178,31.5004 327.5,32.5C 326.288,37.4654 325.288,42.4654 324.5,47.5C 307.83,47.3334 291.163,47.5001 274.5,48C 272.106,49.9522 270.606,52.4522 270,55.5C 269.162,60.8461 268.329,66.1794 267.5,71.5C 279.505,71.3335 291.505,71.5001 303.5,72C 306.833,76.6667 310.167,81.3333 313.5,86C 296.823,86.1671 280.157,86.6671 263.5,87.5C 260.553,99.3991 258.053,111.399 256,123.5C 250.221,124.807 244.388,124.807 238.5,123.5C 244.394,97.1988 250.227,70.8655 256,44.5C 259.076,38.5887 263.576,34.2554 269.5,31.5 Z"/></g>
<g><path style="opacity:1" fill="#de7118" d="M 66.5,54.5 C 76.275,53.5236 85.6084,55.0236 94.5,59C 97.9439,62.1108 100.111,65.9441 101,70.5C 101.5,88.4969 101.667,106.497 101.5,124.5C 97.5,124.5 93.5,124.5 89.5,124.5C 90.7617,117.253 89.095,116.087 84.5,121C 73.1273,128.496 61.9606,128.329 51,120.5C 42.2361,99.8744 49.0695,87.7077 71.5,84C 76.4889,83.5007 81.4889,83.3341 86.5,83.5C 89.3291,70.5004 84.1624,64.5004 71,65.5C 65.1489,65.4703 59.4822,66.4703 54,68.5C 51.7804,65.994 50.6138,62.994 50.5,59.5C 55.9211,57.8167 61.2545,56.15 66.5,54.5 Z"/></g>
<g><path style="opacity:1" fill="#de7015" d="M 196.5,54.5 C 204.324,54.0321 211.991,54.8654 219.5,57C 223.719,59.552 226.886,63.052 229,67.5C 229.5,86.4971 229.667,105.497 229.5,124.5C 225.833,124.5 222.167,124.5 218.5,124.5C 218.889,117.908 217.223,116.742 213.5,121C 205.148,126.602 196.148,127.936 186.5,125C 176.884,119.589 173.384,111.422 176,100.5C 179.429,92.071 185.596,86.9043 194.5,85C 201.453,83.8367 208.453,83.3367 215.5,83.5C 217.309,75.8432 214.976,70.0099 208.5,66C 198.973,64.942 189.639,65.7754 180.5,68.5C 179.491,65.4726 179.491,62.4726 180.5,59.5C 185.951,57.7502 191.284,56.0836 196.5,54.5 Z"/></g>
<g><path style="opacity:1" fill="#7c9ab0" d="M 381.5,55.5 C 383.288,55.2148 384.955,55.5481 386.5,56.5C 385.045,58.2199 384.212,60.2199 384,62.5C 383.552,59.9693 382.719,57.6359 381.5,55.5 Z"/></g>
<g><path style="opacity:1" fill="#de7016" d="M 109.5,55.5 C 114.833,55.5 120.167,55.5 125.5,55.5C 130.367,73.5725 135.534,91.5725 141,109.5C 147.535,92.3613 152.035,74.6946 154.5,56.5C 159.456,55.5059 164.456,55.1725 169.5,55.5C 165.822,79.3832 158.822,102.217 148.5,124C 145.5,124.167 142.5,124.333 139.5,124.5C 136.061,124.446 132.894,123.78 130,122.5C 122.853,100.27 116.02,77.9364 109.5,55.5 Z"/></g>
<g><path style="opacity:1" fill="#5e829f" d="M 302.5,56.5 C 308.653,55.3467 314.986,55.18 321.5,56C 326.333,62.8333 331.167,69.6667 336,76.5C 342.135,69.364 348.635,62.5307 355.5,56C 362.833,55.3333 370.167,55.3333 377.5,56C 366.65,67.3496 355.983,78.8496 345.5,90.5C 352.971,101.804 360.638,112.971 368.5,124C 362.167,124.667 355.833,124.667 349.5,124C 344.21,116.587 339.043,109.087 334,101.5C 327.198,109.303 320.031,116.803 312.5,124C 305.167,124.667 297.833,124.667 290.5,124C 302.017,111.984 313.35,99.8172 324.5,87.5C 317.109,77.1252 309.776,66.7919 302.5,56.5 Z"/></g>
<g><path style="opacity:1" fill="#7e9bb2" d="M 387.5,55.5 C 389.093,56.3479 390.26,57.6813 391,59.5C 391.196,57.7139 392.029,56.3805 393.5,55.5C 394.833,57.8333 394.833,60.1667 393.5,62.5C 392.459,60.0087 391.626,60.0087 391,62.5C 390.085,61.6721 389.419,60.6721 389,59.5C 388.667,60.5 388.333,61.5 388,62.5C 387.503,60.1902 387.337,57.8568 387.5,55.5 Z"/></g>
<g><path style="opacity:1" fill="#fefdfd" d="M 72.5,93.5 C 77.1667,93.5 81.8333,93.5 86.5,93.5C 86.5,98.5 86.5,103.5 86.5,108.5C 81.3581,113.937 75.0247,116.103 67.5,115C 63.1981,113.065 61.1981,109.732 61.5,105C 61.8858,98.1127 65.5524,94.2794 72.5,93.5 Z"/></g>
<g><path style="opacity:1" fill="#fefbf8" d="M 200.5,92.5 C 205.5,92.5 210.5,92.5 215.5,92.5C 218.886,108.947 212.219,116.447 195.5,115C 189.065,110.313 187.898,104.479 192,97.5C 194.682,95.415 197.516,93.7483 200.5,92.5 Z"/></g>
<g><path style="opacity:1" fill="#f0c191" d="M 72.5,93.5 C 77.3054,92.5128 82.3054,92.1795 87.5,92.5C 87.8214,98.0262 87.4881,103.36 86.5,108.5C 86.5,103.5 86.5,98.5 86.5,93.5C 81.8333,93.5 77.1667,93.5 72.5,93.5 Z"/></g>
</svg>