<svg xmlns="http://www.w3.org/2000/svg" width="387" height="119" viewBox="0 0 387 119" fill="none">
<g clip-path="url(#clip0_1_3)">
<path d="M275.469 0.511717C277.383 0.522329 277.383 0.522329 279.336 0.533155C282.703 0.556302 286.069 0.601095 289.436 0.656675C292.882 0.708129 296.327 0.730725 299.773 0.755857C306.516 0.810836 313.258 0.897067 320 0.999998C319.01 6.28 318.02 11.56 317 17C315.501 17.0093 314.002 17.0187 312.458 17.0283C306.906 17.0681 301.354 17.1339 295.802 17.2075C293.398 17.2358 290.993 17.257 288.589 17.271C285.135 17.2924 281.683 17.339 278.23 17.3906C276.613 17.3925 276.613 17.3925 274.963 17.3943C273.962 17.4141 272.962 17.4338 271.93 17.4541C271.049 17.463 270.167 17.4719 269.259 17.481C266.842 17.8138 266.842 17.8138 265.236 19.8967C263.908 22.1564 263.335 23.9807 262.832 26.5469C262.661 27.3912 262.49 28.2355 262.314 29.1055C262.149 29.9782 261.983 30.8509 261.812 31.75C261.635 32.6382 261.458 33.5263 261.275 34.4414C260.841 36.6259 260.416 38.8119 260 41C261.038 40.9267 262.076 40.8534 263.146 40.7778C267.039 40.5223 270.932 40.363 274.832 40.231C276.511 40.161 278.189 40.0658 279.865 39.9438C293.403 38.9843 293.403 38.9843 297.787 42.3871C301.236 46.0784 306 51.781 306 57C289.5 57 273 57 256 57C255.34 60.96 254.68 64.92 254 69C253.199 73.2406 252.32 77.4632 251.438 81.6875C251.216 82.7697 250.995 83.8518 250.768 84.9668C250.554 85.9922 250.341 87.0177 250.121 88.0742C249.834 89.46 249.834 89.46 249.541 90.8738C249 93 249 93 248 94C245.137 94.0733 242.299 94.0924 239.438 94.0625C238.631 94.058 237.825 94.0535 236.994 94.0488C234.996 94.037 232.998 94.0191 231 94C231.294 92.5286 231.589 91.0573 231.883 89.5859C232.077 88.6127 232.272 87.6395 232.472 86.6367C232.915 84.4231 233.359 82.2095 233.803 79.9961C235.036 73.8466 236.257 67.6951 237.457 61.5391C238.928 54.017 240.442 46.5046 242 39C242.249 37.8002 242.498 36.6004 242.754 35.3643C243.478 31.945 244.232 28.5345 245 25.125C245.319 23.611 245.319 23.611 245.644 22.0664C247.528 13.9744 250.652 8.30427 257.365 3.30444C263.072 -0.125776 268.994 0.37559 275.469 0.511717Z" fill="#5F83A0"/>
<path d="M295 25C301.306 23.9908 307.813 22.9752 314 25C318.922 28.9293 321.966 34.5944 324.859 40.0989C326.034 42.0572 327.324 43.46 329 45C329.65 44.3044 329.65 44.3044 330.313 43.5947C332.292 41.4792 334.271 39.3646 336.25 37.25C336.932 36.5204 337.614 35.7908 338.316 35.0391C338.98 34.3301 339.644 33.6211 340.328 32.8906C340.936 32.2413 341.543 31.5919 342.169 30.9229C342.773 30.2883 343.377 29.6538 344 29C344.628 28.2678 345.257 27.5356 345.904 26.7813C348.526 24.5531 349.805 24.5304 353.203 24.6094C354.183 24.6223 355.163 24.6352 356.172 24.6484C357.188 24.682 358.203 24.7155 359.25 24.75C360.281 24.7681 361.312 24.7861 362.375 24.8047C364.918 24.8518 367.458 24.9175 370 25C365.862 29.8838 361.624 34.6397 357.25 39.3125C356.342 40.2876 356.342 40.2876 355.415 41.2825C351.01 45.989 346.48 50.522 341.793 54.9492C339.87 57.1491 339.318 58.1352 339 61C339.907 63.0813 339.907 63.0813 341.43 65.0898C341.974 65.8686 342.518 66.6474 343.079 67.4497C343.672 68.2707 344.264 69.0917 344.875 69.9375C345.467 70.7791 346.059 71.6207 346.669 72.4878C347.868 74.1916 349.072 75.8918 350.282 77.5884C352.253 80.3547 354.199 83.137 356.135 85.928C357.247 87.5313 358.368 89.1291 359.488 90.7266C361 93 361 93 361 94C354.689 95.01 348.195 96.0087 342 94C337.061 90.1043 334.115 84.4519 331.149 79.0064C329.684 76.4488 327.923 74.2269 326 72C321.778 76.1062 317.77 80.3129 313.969 84.8125C313.319 85.5344 312.669 86.2563 312 87C311.546 87.5918 311.092 88.1835 310.625 88.7932C308.113 91.7687 306.262 93.73 302.374 94.562C299.407 94.6877 296.526 94.613 293.562 94.4375C292.545 94.4059 291.527 94.3743 290.479 94.3418C287.983 94.2598 285.493 94.1451 283 94C287.138 89.1163 291.376 84.36 295.75 79.6875C296.357 79.0367 296.964 78.3859 297.589 77.7153C301.946 73.0648 306.409 68.5574 311.012 64.1484C313.078 61.9156 314.532 59.6566 316 57C312.237 51.3041 308.443 45.6327 304.574 40.0078C303.69 38.7216 303.69 38.7216 302.788 37.4094C301.6 35.6839 300.41 33.9598 299.218 32.2371C298.672 31.4434 298.125 30.6497 297.562 29.832C297.069 29.1177 296.575 28.4033 296.066 27.6672C295 26 295 26 295 25Z" fill="#5E839F"/>
<path d="M102 25C107.28 25 112.56 25 118 25C123.126 40.9402 128.222 56.8792 132.422 73.0938C132.834 74.9908 132.834 74.9908 134 76C139.976 61.4439 143.079 45.9299 145.422 30.4297C146 27 146 27 147 25C151.95 25 156.9 25 162 25C159.343 44.4857 153.754 62.9603 146.812 81.3125C146.467 82.2267 146.122 83.1409 145.767 84.0828C145.273 85.3663 145.273 85.3663 144.77 86.6758C144.477 87.438 144.184 88.2003 143.882 88.9856C143 91 143 91 141 94C139.121 94.3406 139.121 94.3406 136.867 94.293C136.062 94.2833 135.256 94.2736 134.426 94.2637C133.584 94.2385 132.742 94.2134 131.875 94.1875C131.026 94.174 130.176 94.1604 129.301 94.1465C127.2 94.1111 125.1 94.0573 123 94C120.23 87.4281 117.986 80.8806 116.125 74C114.239 67.2025 112.225 60.4857 109.938 53.8125C107.811 47.5895 105.886 41.3366 104.125 35C103.91 34.2276 103.694 33.4552 103.472 32.6594C102 27.2667 102 27.2667 102 25Z" fill="#DE7116"/>
<path d="M14 1C18.95 1 23.9 1 29 1C29.0929 13.066 29.1639 25.132 29.2072 37.1983C29.2281 42.802 29.2563 48.4055 29.3018 54.009C29.3454 59.4231 29.3692 64.837 29.3795 70.2512C29.3869 72.3104 29.4012 74.3695 29.4229 76.4286C29.6562 99.4971 29.6562 99.4971 22.9219 108.902C18.2431 113.287 14.0909 116.832 8 119C4.18626 117.6 2.22323 115.376 0 112C1 109 1 109 4.3125 106.812C9.37821 103.39 11.1223 98.6331 13 93C13.1205 90.0644 13.1854 87.1507 13.2053 84.2141C13.2152 83.3163 13.2251 82.4186 13.2353 81.4936C13.2669 78.5231 13.2917 75.5526 13.3164 72.582C13.337 70.5237 13.358 68.4653 13.3794 66.4069C13.4346 60.9867 13.484 55.5665 13.5322 50.1463C13.5824 44.6164 13.6381 39.0865 13.6934 33.5566C13.8009 22.7045 13.9024 11.8523 14 1Z" fill="#DE7014"/>
<path fill-rule="evenodd" clip-rule="evenodd" d="M94 39C92.298 33.8941 89.4382 29.7292 85.0117 26.5898C71.6638 20.158 56.089 24.0069 43 29C43 32.7956 43.5018 34.629 45 38C53.9342 35.9197 65.1032 34.0344 74 37C76.8563 39.2308 77.8834 40.4228 78.6094 44.0156L78.75 47.25C78.8508 49.1658 78.9397 51.0825 79 53C77.2878 52.9808 75.5756 52.9629 73.8633 52.9512L71.75 52.9375C71.473 52.9341 71.1965 52.9302 70.9203 52.9264C67.8479 52.8836 64.8193 52.8413 61.7813 53.4297L60 54C56.9061 54.8084 53.9516 55.7641 51 57C45.3539 60.086 41.9172 63.5876 39.6172 69.6328C37.7395 76.8344 38.8228 83.19 42.5 89.625C46.1854 93.1262 50.1146 94.7052 55 96C64.5841 97.1383 70.9855 94.1977 79.0234 89.2422L81 88L82 94H94C94.0205 87.5319 94.0378 81.0638 94.0488 74.5957C94.0529 71.9596 94.0575 69.3236 94.0625 66.6875C94.0752 62.7952 94.0878 58.903 94.0934 55.0107L94.0977 51.3242L94.1133 47.7255L94.1135 44.3894C94.1176 42.5925 94.0881 40.7947 94 39ZM80.1756 77.386C81.2579 75.0764 80.9742 72.1266 80 62C79.2704 61.9746 78.549 61.9457 77.8356 61.9171C69.5796 61.5861 62.3759 61.2973 55.5625 67.0625C53.2693 71.3738 52.9832 75.2288 54 80C54.6313 81.0368 55.0156 81.668 55.5122 82.193C56.285 83.0098 57.3297 83.5695 60 85C66.6974 86.0595 72.5379 83.9914 78.1016 80.3633C79.055 79.1764 79.7307 78.3353 80.1756 77.386Z" fill="#DE7116"/>
<path fill-rule="evenodd" clip-rule="evenodd" d="M222 37C220.036 33.0726 217.257 29.922 214 27C206.416 22.8171 195.34 22.7882 186.977 24.3867L185 25L181.766 25.9727L178.25 27.0625C176.166 27.7073 174.083 28.3529 172 29L173 38H177C181.694 36.55 185.684 35.7626 190.561 35.7754L192.812 35.8125C193.3 35.8129 193.774 35.8093 194.235 35.8057C198.436 35.7733 201.624 35.7487 205.063 38.875C206.435 42.195 207.129 43.8722 207.499 45.6179C207.877 47.4001 207.918 49.2538 208 53C207.29 52.9903 206.582 52.9786 205.874 52.967C198.832 52.8512 191.865 52.7366 184.984 54.5234C178.024 56.7816 172.077 61.2794 168.652 67.8789C166.725 74.1461 167.066 82.1329 170 88C173.082 92.0298 177.195 94.51 182 96C191.831 97.2413 199.14 95.5707 207.063 89.75L209 88L211 94H222C222.021 87.2787 222.038 80.5573 222.049 73.8359L222.05 73.0455C222.055 69.8838 222.059 66.7221 222.069 63.5604C222.08 60.2034 222.089 56.8464 222.093 53.4894L222.098 49.6641L222.113 45.9172L222.114 42.4595C222.118 40.6393 222.091 38.818 222 37ZM205.332 61.9648L201.813 61.9375C195.354 61.8723 190.322 62.0783 185 66C181.823 69.9433 181.624 73.0189 182 78C183.545 81.0893 185.309 82.8243 188 85C191.384 85.6178 194.615 85.3005 197.98 84.5703L200 84C202.398 83.3348 204.235 82.5094 206.359 81.207C207.103 80.2065 207.653 79.4662 208.039 78.6483C209.137 76.321 208.902 73.3654 208 62L205.332 61.9648Z" fill="#DE7014"/>
<path d="M380 25C380.66 25 381.32 25 382 25C382.33 25.66 382.66 26.32 383 27C384.32 26.34 385.64 25.68 387 25C387 27.31 387 29.62 387 32C386.216 31.8144 385.433 31.6287 384.625 31.4375C382.029 30.7404 382.029 30.7404 380 32C380 29.69 380 27.38 380 25Z" fill="#7091AA"/>
<path d="M374 25C375.65 25 377.3 25 379 25C378.67 27.31 378.34 29.62 378 32C377.34 32 376.68 32 376 32C376 30.35 376 28.7 376 27C375.34 27 374.68 27 374 27C374 26.34 374 25.68 374 25Z" fill="#84A0B5"/>
<path d="M385 25C385.66 25 386.32 25 387 25C387 27.31 387 29.62 387 32C386.34 32 385.68 32 385 32C384.619 30.0086 384.287 28.0072 384 26C384.33 25.67 384.66 25.34 385 25Z" fill="#8CA7BB"/>
</g>
<defs>
<clipPath id="clip0_1_3">
<rect width="387" height="119" fill="white"/>
</clipPath>
</defs>
</svg>