<svg xmlns="http://www.w3.org/2000/svg" width="68" height="97" viewBox="0 0 68 97" fill="none">
<path d="M68 67.8832V22.6277L36.96 0V17.3749L49.12 26.2643C49.6 26.6684 49.6 27.4765 49.12 27.6786L34.72 38.1843C34.24 38.5884 33.76 38.3863 33.44 38.1843L19.04 27.6786C18.56 27.4765 18.56 26.4664 19.04 26.2643L31.2 17.3749V0L0 22.6277V67.8832L11.84 59.1958V41.4168C11.84 40.8107 12.48 40.4067 12.8 40.6087L27.2 51.1144C27.68 51.5185 27.84 51.9226 27.84 52.5287V73.5401C27.84 74.1462 27.2 74.5503 26.88 74.3483L14.72 65.4588L2.88 74.1462L33.92 96.976L64.96 74.3483L53.12 65.6608L40.96 74.5503C40.48 74.9544 40 74.5503 40 73.7422V52.7307C40 52.1246 40.32 51.5185 40.64 51.3165L55.04 40.8107C55.52 40.4067 56 40.8107 56 41.6189V59.3978L68 67.8832Z" fill="#4C4C4C"/>
<path d="M33.92 96.976L64.96 74.3483L53.12 65.6608L40.96 74.5503C40.48 74.9544 40 74.5503 40 73.7422V52.7307C40 52.1246 40.32 51.5185 40.64 51.3165L55.04 40.8107C55.52 40.4067 56 40.8107 56 41.6189V59.3978L67.84 68.0852V22.6277L33.92 47.4778V96.976Z" fill="black"/>
<path d="M36.96 0V17.3749L49.12 26.2643C49.6 26.6684 49.6 27.4765 49.12 27.6786L34.72 38.1843C34.24 38.5884 33.76 38.3863 33.44 38.1843L19.04 27.6786C18.56 27.4765 18.56 26.4664 19.04 26.2643L31.2 17.3749V0L0 22.6277L33.92 47.4778L67.84 22.6277L36.96 0Z" fill="#808080"/>
<path d="M27.04 74.5503L14.88 65.6608L3.04 74.3483L34.08 96.976V47.4778L-3.8147e-06 22.6277V67.8832L11.84 59.1958V41.4168C11.84 40.8107 12.48 40.4067 12.8 40.6087L27.2 51.1144C27.68 51.5185 27.84 51.9226 27.84 52.5287V73.5401C28 74.3483 27.52 74.9544 27.04 74.5503Z" fill="#4C4C4C"/>
</svg>